<?xml version="1.0" standalone="no"?>
<svg xmlns:xlink="http://www.w3.org/1999/xlink" id="wave" style="transform:rotate(180deg); transition: 0.3s" viewBox="0 0 1440 100" version="1.1" xmlns="http://www.w3.org/2000/svg"><defs><linearGradient id="sw-gradient-0" x1="0" x2="0" y1="1" y2="0"><stop stop-color="rgba(255, 249, 234, 1)" offset="0%"/><stop stop-color="rgba(255, 249, 234, 1)" offset="100%"/></linearGradient></defs><path style="transform:translate(0, 0px); opacity:1" fill="url(#sw-gradient-0)" d="M0,70L20,63.3C40,57,80,43,120,38.3C160,33,200,37,240,41.7C280,47,320,53,360,55C400,57,440,53,480,48.3C520,43,560,37,600,36.7C640,37,680,43,720,38.3C760,33,800,17,840,10C880,3,920,7,960,10C1000,13,1040,17,1080,18.3C1120,20,1160,20,1200,26.7C1240,33,1280,47,1320,45C1360,43,1400,27,1440,20C1480,13,1520,17,1560,28.3C1600,40,1640,60,1680,60C1720,60,1760,40,1800,38.3C1840,37,1880,53,1920,53.3C1960,53,2000,37,2040,38.3C2080,40,2120,60,2160,58.3C2200,57,2240,33,2280,23.3C2320,13,2360,17,2400,25C2440,33,2480,47,2520,58.3C2560,70,2600,80,2640,70C2680,60,2720,30,2760,23.3C2800,17,2840,33,2860,41.7L2880,50L2880,100L2860,100C2840,100,2800,100,2760,100C2720,100,2680,100,2640,100C2600,100,2560,100,2520,100C2480,100,2440,100,2400,100C2360,100,2320,100,2280,100C2240,100,2200,100,2160,100C2120,100,2080,100,2040,100C2000,100,1960,100,1920,100C1880,100,1840,100,1800,100C1760,100,1720,100,1680,100C1640,100,1600,100,1560,100C1520,100,1480,100,1440,100C1400,100,1360,100,1320,100C1280,100,1240,100,1200,100C1160,100,1120,100,1080,100C1040,100,1000,100,960,100C920,100,880,100,840,100C800,100,760,100,720,100C680,100,640,100,600,100C560,100,520,100,480,100C440,100,400,100,360,100C320,100,280,100,240,100C200,100,160,100,120,100C80,100,40,100,20,100L0,100Z"/></svg>